<?xml version="1.0" encoding="utf-8"?>
<!-- Generator: Adobe Illustrator 18.1.0, SVG Export Plug-In . SVG Version: 6.00 Build 0)  -->
<svg version="1.1" id="Layer_1" xmlns="http://www.w3.org/2000/svg" xmlns:xlink="http://www.w3.org/1999/xlink" x="0px" y="0px"
	 viewBox="0 0 60 60" enable-background="new 0 0 60 60" xml:space="preserve">
<circle opacity="0.6" fill="#FFFFFF" cx="7.9" cy="12.7" r="1.3"/>
<circle fill="#FFFFFF" cx="16.8" cy="12.7" r="2.5"/>
<circle fill="#FFFFFF" cx="25.6" cy="12.7" r="2.5"/>
<circle opacity="0.6" fill="#FFFFFF" cx="34.4" cy="12.7" r="1.3"/>
<circle fill="#FFFFFF" cx="43.2" cy="12.7" r="2.5"/>
<circle fill="#FFFFFF" cx="52.1" cy="12.7" r="2.5"/>
<circle fill="#FFFFFF" cx="7.9" cy="21.6" r="2.5"/>
<circle opacity="0.6" fill="#FFFFFF" cx="16.8" cy="21.6" r="1.3"/>
<circle opacity="0.6" fill="#FFFFFF" cx="25.6" cy="21.6" r="1.3"/>
<circle fill="#FFFFFF" cx="34.4" cy="21.6" r="2.5"/>
<circle opacity="0.6" fill="#FFFFFF" cx="43.2" cy="21.6" r="1.3"/>
<circle opacity="0.6" fill="#FFFFFF" cx="52.1" cy="21.6" r="1.3"/>
<circle fill="#FFFFFF" cx="7.9" cy="30.4" r="2.5"/>
<circle opacity="0.6" fill="#FFFFFF" cx="16.8" cy="30.4" r="1.3"/>
<circle opacity="0.6" fill="#FFFFFF" cx="25.6" cy="30.4" r="1.3"/>
<circle fill="#FFFFFF" cx="34.4" cy="30.4" r="2.5"/>
<circle opacity="0.6" fill="#FFFFFF" cx="43.2" cy="30.4" r="1.3"/>
<circle opacity="0.6" fill="#FFFFFF" cx="52.1" cy="30.4" r="1.3"/>
<circle fill="#FFFFFF" cx="7.9" cy="39.2" r="2.5"/>
<circle opacity="0.6" fill="#FFFFFF" cx="16.8" cy="39.2" r="1.3"/>
<circle opacity="0.6" fill="#FFFFFF" cx="25.6" cy="39.2" r="1.3"/>
<circle fill="#FFFFFF" cx="34.4" cy="39.2" r="2.5"/>
<circle opacity="0.6" fill="#FFFFFF" cx="43.2" cy="39.2" r="1.3"/>
<circle opacity="0.6" fill="#FFFFFF" cx="52.1" cy="39.2" r="1.3"/>
<circle opacity="0.6" fill="#FFFFFF" cx="7.9" cy="48" r="1.3"/>
<circle fill="#FFFFFF" cx="16.8" cy="48" r="2.5"/>
<circle fill="#FFFFFF" cx="25.6" cy="48" r="2.5"/>
<circle opacity="0.6" fill="#FFFFFF" cx="34.4" cy="48" r="1.3"/>
<circle fill="#FFFFFF" cx="43.2" cy="48" r="2.5"/>
<circle fill="#FFFFFF" cx="52.1" cy="48" r="2.5"/>
</svg>
