<?xml version="1.0" encoding="utf-8"?>
<!-- Generator: Adobe Illustrator 18.1.0, SVG Export Plug-In . SVG Version: 6.00 Build 0)  -->
<svg version="1.1" xmlns="http://www.w3.org/2000/svg" xmlns:xlink="http://www.w3.org/1999/xlink" x="0px" y="0px"
	 viewBox="0 0 133.8 26.6" enable-background="new 0 0 133.8 26.6" xml:space="preserve">
<g id="Layer_2">
</g>
<g id="Layer_1">
	<circle opacity="0.6" fill="#FFFFFF" enable-background="new    " cx="5.6" cy="5" r="0.6"/>
	<circle fill="#FFFFFF" cx="9.9" cy="5" r="1.2"/>
	<circle fill="#FFFFFF" cx="14.2" cy="5" r="1.2"/>
	<circle opacity="0.6" fill="#FFFFFF" enable-background="new    " cx="18.5" cy="5" r="0.6"/>
	<circle fill="#FFFFFF" cx="22.7" cy="5" r="1.2"/>
	<circle fill="#FFFFFF" cx="27" cy="5" r="1.2"/>
	<circle fill="#FFFFFF" cx="5.6" cy="9.3" r="1.2"/>
	<circle opacity="0.6" fill="#FFFFFF" enable-background="new    " cx="9.9" cy="9.3" r="0.6"/>
	<circle opacity="0.6" fill="#FFFFFF" enable-background="new    " cx="14.2" cy="9.3" r="0.6"/>
	<circle fill="#FFFFFF" cx="18.5" cy="9.3" r="1.2"/>
	<circle opacity="0.6" fill="#FFFFFF" enable-background="new    " cx="22.7" cy="9.3" r="0.6"/>
	<circle opacity="0.6" fill="#FFFFFF" enable-background="new    " cx="27" cy="9.3" r="0.6"/>
	<circle fill="#FFFFFF" cx="5.6" cy="13.5" r="1.2"/>
	<circle opacity="0.6" fill="#FFFFFF" enable-background="new    " cx="9.9" cy="13.5" r="0.6"/>
	<circle opacity="0.6" fill="#FFFFFF" enable-background="new    " cx="14.2" cy="13.5" r="0.6"/>
	<circle fill="#FFFFFF" cx="18.5" cy="13.5" r="1.2"/>
	<circle opacity="0.6" fill="#FFFFFF" enable-background="new    " cx="22.7" cy="13.5" r="0.6"/>
	<circle opacity="0.6" fill="#FFFFFF" enable-background="new    " cx="27" cy="13.5" r="0.6"/>
	<circle fill="#FFFFFF" cx="5.6" cy="17.8" r="1.2"/>
	<circle opacity="0.6" fill="#FFFFFF" enable-background="new    " cx="9.9" cy="17.8" r="0.6"/>
	<circle opacity="0.6" fill="#FFFFFF" enable-background="new    " cx="14.2" cy="17.8" r="0.6"/>
	<circle fill="#FFFFFF" cx="18.5" cy="17.8" r="1.2"/>
	<circle opacity="0.6" fill="#FFFFFF" enable-background="new    " cx="22.7" cy="17.8" r="0.6"/>
	<circle opacity="0.6" fill="#FFFFFF" enable-background="new    " cx="27" cy="17.8" r="0.6"/>
	<circle opacity="0.6" fill="#FFFFFF" enable-background="new    " cx="5.6" cy="22" r="0.6"/>
	<circle fill="#FFFFFF" cx="9.9" cy="22" r="1.2"/>
	<circle fill="#FFFFFF" cx="14.2" cy="22" r="1.2"/>
	<circle opacity="0.6" fill="#FFFFFF" enable-background="new    " cx="18.5" cy="22" r="0.6"/>
	<circle fill="#FFFFFF" cx="22.7" cy="22" r="1.2"/>
	<circle fill="#FFFFFF" cx="27" cy="22" r="1.2"/>
	<g>
		<path fill="#FFFFFF" d="M35.5,13.5c0-3.7,2-6.1,4.8-6.1s4.8,2.4,4.8,6.1s-2,6.2-4.8,6.2S35.5,17.3,35.5,13.5z M44.5,13.5
			c0-3.4-1.7-5.6-4.2-5.6s-4.2,2.1-4.2,5.6s1.7,5.6,4.2,5.6S44.5,17,44.5,13.5z"/>
		<path fill="#FFFFFF" d="M47.8,7.7h3.1c2.7,0,4.2,0.9,4.2,3.2c0,2.3-1.5,3.4-4.2,3.4h-2.5v5.2h-0.6V7.7z M50.6,13.8
			c2.5,0,3.8-0.8,3.8-2.9c0-2.1-1.2-2.7-3.8-2.7h-2.3v5.6H50.6z"/>
		<path fill="#FFFFFF" d="M57.5,7.7h6.3v0.5h-5.8v4.8h4.8v0.5h-4.8V19H64v0.5h-6.5V7.7z"/>
		<path fill="#FFFFFF" d="M66.5,7.7h0.6l5.2,8.7l1.4,2.3h0.1c0-1.1-0.1-2.2-0.1-3.3V7.7h0.5v11.8h-0.6l-5.2-8.7L67,8.5H67
			c0,1.1,0.1,2.1,0.1,3.2v7.8h-0.5V7.7z"/>
		<path fill="#FFFFFF" d="M85.4,7.5c1.4,0,2.4,0.7,3,1.4l-0.4,0.4C87.4,8.5,86.5,8,85.4,8c-2.7,0-4.4,2.1-4.4,5.6s1.6,5.6,4.3,5.6
			c1.3,0,2.2-0.5,3.1-1.5l0.4,0.4c-0.9,1-1.9,1.7-3.5,1.7c-2.9,0-4.9-2.4-4.9-6.2S82.4,7.5,85.4,7.5z"/>
		<path fill="#FFFFFF" d="M90,13.5c0-3.7,2-6.1,4.8-6.1c2.8,0,4.8,2.4,4.8,6.1s-2,6.2-4.8,6.2C92,19.7,90,17.3,90,13.5z M99,13.5
			c0-3.4-1.7-5.6-4.2-5.6s-4.2,2.1-4.2,5.6s1.7,5.6,4.2,5.6S99,17,99,13.5z"/>
		<path fill="#FFFFFF" d="M102.2,7.7h2.7c3.7,0,5.3,2.4,5.3,5.9s-1.6,5.9-5.3,5.9h-2.7V7.7z M104.8,19c3.4,0,4.8-2.3,4.8-5.4
			c0-3.1-1.4-5.4-4.8-5.4h-2V19H104.8z"/>
		<path fill="#FFFFFF" d="M112.9,7.7h6.3v0.5h-5.8v4.8h4.8v0.5h-4.8V19h5.9v0.5h-6.5V7.7z"/>
		<path fill="#FFFFFF" d="M128.4,19.5l-3.3-5.6h-2.7v5.6h-0.6V7.7h3.3c2.3,0,3.8,0.9,3.8,3c0,1.9-1.2,3-3.2,3.2l3.4,5.6H128.4z
			 M124.9,13.4c2.2,0,3.4-0.9,3.4-2.7c0-1.9-1.2-2.5-3.4-2.5h-2.5v5.2H124.9z"/>
	</g>
</g>
</svg>
