<?xml version="1.0" encoding="utf-8"?>
<!-- Generator: Adobe Illustrator 19.0.0, SVG Export Plug-In . SVG Version: 6.00 Build 0)  -->
<svg version="1.1" id="Layer_1" xmlns="http://www.w3.org/2000/svg" xmlns:xlink="http://www.w3.org/1999/xlink" x="0px" y="0px"
	 viewBox="-265.7 391.9 49.2 40.3" style="enable-background:new -265.7 391.9 49.2 40.3;" xml:space="preserve">
<style type="text/css">
	.st0{opacity:0.6;fill:#FFFFFF;enable-background:new    ;}
	.st1{fill:#FFFFFF;}
</style>
<circle class="st0" cx="-263.2" cy="394.4" r="1.3"/>
<circle class="st1" cx="-254.3" cy="394.4" r="2.5"/>
<circle class="st1" cx="-245.5" cy="394.4" r="2.5"/>
<circle class="st0" cx="-236.7" cy="394.4" r="1.3"/>
<circle class="st1" cx="-227.9" cy="394.4" r="2.5"/>
<circle class="st1" cx="-219" cy="394.4" r="2.5"/>
<circle class="st1" cx="-263.2" cy="403.3" r="2.5"/>
<circle class="st0" cx="-254.3" cy="403.3" r="1.3"/>
<circle class="st0" cx="-245.5" cy="403.3" r="1.3"/>
<circle class="st1" cx="-236.7" cy="403.3" r="2.5"/>
<circle class="st0" cx="-227.9" cy="403.3" r="1.3"/>
<circle class="st0" cx="-219" cy="403.3" r="1.3"/>
<circle class="st1" cx="-263.2" cy="412.1" r="2.5"/>
<circle class="st0" cx="-254.3" cy="412.1" r="1.3"/>
<circle class="st0" cx="-245.5" cy="412.1" r="1.3"/>
<circle class="st1" cx="-236.7" cy="412.1" r="2.5"/>
<circle class="st0" cx="-227.9" cy="412.1" r="1.3"/>
<circle class="st0" cx="-219" cy="412.1" r="1.3"/>
<circle class="st1" cx="-263.2" cy="420.9" r="2.5"/>
<circle class="st0" cx="-254.3" cy="420.9" r="1.3"/>
<circle class="st0" cx="-245.5" cy="420.9" r="1.3"/>
<circle class="st1" cx="-236.7" cy="420.9" r="2.5"/>
<circle class="st0" cx="-227.9" cy="420.9" r="1.3"/>
<circle class="st0" cx="-219" cy="420.9" r="1.3"/>
<circle class="st0" cx="-263.2" cy="429.7" r="1.3"/>
<circle class="st1" cx="-254.3" cy="429.7" r="2.5"/>
<circle class="st1" cx="-245.5" cy="429.7" r="2.5"/>
<circle class="st0" cx="-236.7" cy="429.7" r="1.3"/>
<circle class="st1" cx="-227.9" cy="429.7" r="2.5"/>
<circle class="st1" cx="-219" cy="429.7" r="2.5"/>
</svg>
